<svg width="83" height="85" viewBox="0 0 83 85" fill="none" xmlns="http://www.w3.org/2000/svg">
<path d="M0.0292975 77.4722L9.03503 84.6993L10.791 73.2866L0.0292975 77.4722ZM40.9084 35.351L41.3563 34.4569L41.3269 34.4422L41.2966 34.4294L40.9084 35.351ZM35.6909 52.601L35.3601 53.5448L35.6909 52.601ZM8.88592 79.8398C24.4092 80.4048 37.1387 71.5186 43.7259 61.3795C47.0189 56.3108 48.8324 50.8457 48.6291 46.0013C48.4237 41.1071 46.1484 36.8577 41.3563 34.4569L40.4604 36.2451C44.5215 38.2796 46.4519 41.8216 46.6309 46.0851C46.8119 50.3985 45.1882 55.4576 42.0487 60.2899C35.771 69.9528 23.6542 78.376 8.95866 77.8412L8.88592 79.8398ZM41.2966 34.4294C36.2577 32.3066 31.9363 31.8281 28.6118 32.5294C25.278 33.2327 22.91 35.1443 22.0196 37.758C21.1318 40.3639 21.8003 43.4104 23.9928 46.2166C26.184 49.021 29.9242 51.6397 35.3601 53.5448L36.0216 51.6573C30.8349 49.8397 27.4605 47.4063 25.5688 44.9852C23.6785 42.5659 23.296 40.2135 23.9127 38.403C24.5269 36.6003 26.219 35.0782 29.0246 34.4864C31.8397 33.8925 35.7371 34.2575 40.5201 36.2726L41.2966 34.4294ZM35.3601 53.5448C43.5424 56.4122 50.6612 54.4181 56.6438 49.8936C62.5814 45.4032 67.4242 38.4124 71.2356 31.1765C75.0552 23.9251 77.883 16.3417 79.7546 10.5812C80.6911 7.69857 81.39 5.26686 81.8552 3.55403C82.0878 2.6975 82.262 2.02042 82.3784 1.55625C82.4366 1.32416 82.4804 1.14527 82.5097 1.02377C82.5244 0.963017 82.5354 0.916606 82.5429 0.885063C82.5467 0.869291 82.5495 0.857236 82.5514 0.848962C82.5524 0.844826 82.5532 0.841634 82.5537 0.839395C82.5539 0.838277 82.5542 0.837315 82.5543 0.836755C82.5545 0.836032 82.5546 0.83555 81.5806 0.608859C80.6067 0.382167 80.6067 0.382164 80.6066 0.3824C80.6065 0.382798 80.6064 0.383274 80.6062 0.384067C80.6058 0.385654 80.6052 0.388193 80.6044 0.391673C80.6028 0.398635 80.6003 0.409369 80.5968 0.423807C80.59 0.452685 80.5796 0.496385 80.5656 0.554387C80.5376 0.670392 80.4952 0.843591 80.4385 1.06981C80.325 1.52228 80.1541 2.18674 79.9251 3.02986C79.4671 4.7163 78.7774 7.11628 77.8525 9.96322C76.001 15.6619 73.2139 23.1294 69.4661 30.2445C65.7101 37.3752 61.033 44.0666 55.4374 48.2984C49.887 52.4961 43.4595 54.2639 36.0216 51.6573L35.3601 53.5448Z" fill="#3A3939"/>
</svg>
