<svg width="60" height="60" viewBox="0 0 60 60" fill="none" xmlns="http://www.w3.org/2000/svg">
<path d="M24.4626 4.51409C25.7957 -1.38733 34.2043 -1.38733 35.5374 4.51409C36.4013 8.3388 40.7904 10.1568 44.1058 8.06324C49.2213 4.8329 55.1671 10.7787 51.9368 15.8942C49.8432 19.2096 51.6612 23.5987 55.4859 24.4626C61.3873 25.7957 61.3873 34.2043 55.4859 35.5374C51.6612 36.4013 49.8432 40.7904 51.9368 44.1058C55.1671 49.2213 49.2213 55.1671 44.1058 51.9368C40.7904 49.8432 36.4013 51.6612 35.5374 55.4859C34.2043 61.3873 25.7957 61.3873 24.4626 55.4859C23.5987 51.6612 19.2096 49.8432 15.8942 51.9368C10.7787 55.1671 4.8329 49.2213 8.06324 44.1058C10.1568 40.7904 8.3388 36.4013 4.51409 35.5374C-1.38733 34.2043 -1.38733 25.7957 4.51409 24.4626C8.3388 23.5987 10.1568 19.2096 8.06324 15.8942C4.8329 10.7787 10.7787 4.8329 15.8942 8.06324C19.2096 10.1568 23.5987 8.3388 24.4626 4.51409Z" fill="#E99F11"/>
</svg>
